Sprint_05400001_forces_filt15Hz.mot
version=1
nRows=33
nColumns=19
inDegrees=yes
endheader
time	R_ground_force_vx	R_ground_force_vy	R_ground_force_vz	R_ground_force_px	R_ground_force_py	R_ground_force_pz	R_ground_torque_x	R_ground_torque_y	R_ground_torque_z	L_ground_force_vx	L_ground_force_vy	L_ground_force_vz	L_ground_force_px	L_ground_force_py	L_ground_force_pz	L_ground_torque_x	L_ground_torque_y	L_ground_torque_z	
0.904500	  0.000000	  0.000000	  0.000000	  0.549488	  0.000000	 -0.226639	  0.000000	  0.000000	  0.000000	-97.420581	2831.798065	 75.341180	  0.798227	  0.000000	 -0.345571	  0.000000	 -3.383790	  0.000000
0.905000	  0.000000	  0.000000	  0.000000	  0.550141	  0.000000	 -0.226561	  0.000000	  0.000000	  0.000000	-89.987690	2828.464845	 75.489844	  0.795659	  0.000000	 -0.345588	  0.000000	 -3.426104	  0.000000
0.905500	  0.000000	  0.000000	  0.000000	  0.550772	  0.000000	 -0.226549	  0.000000	  0.000000	  0.000000	-82.554754	2824.945365	 75.578425	  0.793103	  0.000000	 -0.345600	  0.000000	 -3.466855	  0.000000
0.906000	  0.000000	  0.000000	  0.000000	  0.551403	  0.000000	 -0.226537	  0.000000	  0.000000	  0.000000	-75.122337	2821.238261	 75.613404	  0.790557	  0.000000	 -0.345608	  0.000000	 -3.507144	  0.000000
0.906500	  0.000000	  0.000000	  0.000000	  0.552035	  0.000000	 -0.226524	  0.000000	  0.000000	  0.000000	-67.690948	2817.342133	 75.600762	  0.788021	  0.000000	 -0.345611	  0.000000	 -3.548140	  0.000000
0.907000	  0.000000	  0.000000	  0.000000	  0.552666	  0.000000	 -0.226512	  0.000000	  0.000000	  0.000000	-60.261050	2813.255639	 75.545885	  0.785495	  0.000000	 -0.345609	  0.000000	 -3.591056	  0.000000
0.907500	  0.000000	  0.000000	  0.000000	  0.553298	  0.000000	 -0.226500	  0.000000	  0.000000	  0.000000	-52.833064	2808.977555	 75.453489	  0.782978	  0.000000	 -0.345603	  0.000000	 -3.637129	  0.000000
0.908000	  0.000000	  0.000000	  0.000000	  0.553929	  0.000000	 -0.226488	  0.000000	  0.000000	  0.000000	-45.407364	2804.506828	 75.327562	  0.780470	  0.000000	 -0.345592	  0.000000	 -3.687602	  0.000000
0.908500	  0.000000	  0.000000	  0.000000	  0.554561	  0.000000	 -0.226476	  0.000000	  0.000000	  0.000000	-37.984286	2799.842612	 75.171322	  0.777971	  0.000000	 -0.345575	  0.000000	 -3.743707	  0.000000
0.909000	  0.000000	  0.000000	  0.000000	  0.555192	  0.000000	 -0.226463	  0.000000	  0.000000	  0.000000	-30.564133	2794.984275	 74.987208	  0.775479	  0.000000	 -0.345555	  0.000000	 -3.806668	  0.000000
0.909500	  0.000000	  0.000000	  0.000000	  0.555824	  0.000000	 -0.226451	  0.000000	  0.000000	  0.000000	-23.147197	2789.931402	 74.776898	  0.772997	  0.000000	 -0.345529	  0.000000	 -3.877702	  0.000000
0.910000	  0.000000	  0.000000	  0.000000	  0.556455	  0.000000	 -0.226439	  0.000000	  0.000000	  0.000000	-15.733796	2784.683760	 74.541357	  0.770522	  0.000000	 -0.345499	  0.000000	 -3.958035	  0.000000
0.910500	  0.000000	  0.000000	  0.000000	  0.557154	  0.000000	 -0.226470	  0.000000	  0.000000	  0.000000	 -8.324307	2779.241269	 74.280909	  0.768056	  0.000000	 -0.345464	  0.000000	 -4.048909	  0.000000
0.911000	  0.000000	  0.000000	  0.000000	  0.557853	  0.000000	 -0.226501	  0.000000	  0.000000	  0.000000	 -0.919220	2773.603941	 73.995316	  0.765598	  0.000000	 -0.345424	  0.000000	 -4.151585	  0.000000
0.911500	  0.000000	  0.000000	  0.000000	  0.558553	  0.000000	 -0.226533	  0.000000	  0.000000	  0.000000	  6.480830	2767.771823	 73.683859	  0.763148	  0.000000	 -0.345380	  0.000000	 -4.267346	  0.000000
0.912000	  0.000000	  0.000000	  0.000000	  0.559252	  0.000000	 -0.226564	  0.000000	  0.000000	  0.000000	 13.875019	2761.744941	 73.345397	  0.760707	  0.000000	 -0.345332	  0.000000	 -4.397475	  0.000000
0.912500	  0.000000	  0.000000	  0.000000	  0.559951	  0.000000	 -0.226595	  0.000000	  0.000000	  0.000000	 21.262316	2755.523244	 72.978414	  0.758274	  0.000000	 -0.345279	  0.000000	 -4.543227	  0.000000
0.913000	  0.000000	  0.000000	  0.000000	  0.560650	  0.000000	 -0.226626	  0.000000	  0.000000	  0.000000	 28.641465	2749.106573	 72.581043	  0.755849	  0.000000	 -0.345223	  0.000000	 -4.705783	  0.000000
0.913500	  0.000000	  0.000000	  0.000000	  0.561349	  0.000000	 -0.226658	  0.000000	  0.000000	  0.000000	 36.010971	2742.494660	 72.151086	  0.753433	  0.000000	 -0.345162	  0.000000	 -4.886201	  0.000000
0.914000	  0.000000	  0.000000	  0.000000	  0.562049	  0.000000	 -0.226689	  0.000000	  0.000000	  0.000000	 43.369096	2735.687151	 71.686016	  0.751025	  0.000000	 -0.345097	  0.000000	 -5.085350	  0.000000
0.914500	  0.000000	  0.000000	  0.000000	  0.562748	  0.000000	 -0.226720	  0.000000	  0.000000	  0.000000	 50.713847	2728.683645	 71.182979	  0.748624	  0.000000	 -0.345029	  0.000000	 -5.303854	  0.000000
0.915000	  0.000000	  0.000000	  0.000000	  0.563447	  0.000000	 -0.226751	  0.000000	  0.000000	  0.000000	 58.042975	2721.483738	 70.638783	  0.746232	  0.000000	 -0.344956	  0.000000	 -5.542037	  0.000000
0.915500	  0.000000	  0.000000	  0.000000	  0.564230	  0.000000	 -0.226796	  0.000000	  0.000000	  0.000000	 65.353973	2714.087053	 70.049905	  0.743847	  0.000000	 -0.344881	  0.000000	 -5.799879	  0.000000
0.916000	  0.000000	  0.000000	  0.000000	  0.565013	  0.000000	 -0.226841	  0.000000	  0.000000	  0.000000	 72.644093	2706.493258	 69.412493	  0.741469	  0.000000	 -0.344801	  0.000000	 -6.076980	  0.000000
0.916500	  0.000000	  0.000000	  0.000000	  0.565796	  0.000000	 -0.226887	  0.000000	  0.000000	  0.000000	 79.910379	2698.702060	 68.722397	  0.739099	  0.000000	 -0.344718	  0.000000	 -6.372538	  0.000000
0.917000	  0.000000	  0.000000	  0.000000	  0.566579	  0.000000	 -0.226932	  0.000000	  0.000000	  0.000000	 87.149709	2690.713211	 67.975204	  0.736736	  0.000000	 -0.344632	  0.000000	 -6.685337	  0.000000
0.917500	  0.000000	  0.000000	  0.000000	  0.567362	  0.000000	 -0.226977	  0.000000	  0.000000	  0.000000	 94.358865	2682.526503	 67.166293	  0.734380	  0.000000	 -0.344542	  0.000000	 -7.013751	  0.000000
0.918000	  0.000000	  0.000000	  0.000000	  0.568145	  0.000000	 -0.227022	  0.000000	  0.000000	  0.000000	101.534597	2674.141778	 66.290892	  0.732031	  0.000000	 -0.344450	  0.000000	 -7.355751	  0.000000
0.918500	  0.000000	  0.000000	  0.000000	  0.568928	  0.000000	 -0.227067	  0.000000	  0.000000	  0.000000	108.673692	2665.558928	 65.344124	  0.729689	  0.000000	 -0.344354	  0.000000	 -7.708918	  0.000000
0.919000	  0.000000	  0.000000	  0.000000	  0.569711	  0.000000	 -0.227112	  0.000000	  0.000000	  0.000000	115.773043	2656.777898	 64.321058	  0.727355	  0.000000	 -0.344256	  0.000000	 -8.070465	  0.000000
0.919500	  0.000000	  0.000000	  0.000000	  0.570494	  0.000000	 -0.227158	  0.000000	  0.000000	  0.000000	122.829704	2647.798667	 63.216745	  0.725028	  0.000000	 -0.344155	  0.000000	 -8.437248	  0.000000
0.920000	  0.000000	  0.000000	  0.000000	  0.571277	  0.000000	 -0.227203	  0.000000	  0.000000	  0.000000	129.840932	2638.621231	 62.026247	  0.722709	  0.000000	 -0.344051	  0.000000	 -8.805785	  0.000000
0.920500	  0.000000	  0.000000	  0.000000	  0.572148	  0.000000	 -0.227302	  0.000000	  0.000000	  0.000000	136.804215	2629.245565	 60.744688	  0.720399	  0.000000	 -0.343945	  0.000000	 -9.172265	  0.000000
